<?xml version="1.0" encoding="UTF-8"?>
<svg version="1.1" xmlns="http://www.w3.org/2000/svg" width="500" height="500">
<path d="M0 0 C1.1247165 0.00394052 1.1247165 0.00394052 2.27215454 0.00796065 C3.06515564 0.0068068 3.85815674 0.00565296 4.67518818 0.00446415 C7.36676858 0.00179013 10.05829069 0.00632605 12.74986812 0.01075396 C14.68526269 0.01031842 16.62065721 0.00944383 18.5560514 0.00816479 C23.90113762 0.00591648 29.24620401 0.00994568 34.5912877 0.01494285 C40.34524344 0.01924238 46.09919797 0.01780129 51.85315487 0.01704058 C61.83116522 0.01651503 71.80916906 0.01966508 81.78717777 0.02527842 C96.21388529 0.0333892 110.64058965 0.0360082 125.06729921 0.03726641 C148.47100704 0.0394576 171.87471138 0.04611092 195.27841732 0.05556902 C218.01930256 0.06474867 240.76018686 0.07181773 263.50107357 0.07607684 C264.93030682 0.07634748 266.35954008 0.07661818 267.78877333 0.07688895 C278.85376377 0.07897442 289.91875424 0.08092521 300.98374471 0.08284351 C355.26401963 0.09228525 409.54428585 0.11240164 463.8245599 0.13100848 C463.8245599 102.43100848 463.8245599 204.73100848 463.8245599 310.13100848 C407.83929305 310.13100848 351.86872567 310.04315749 295.8870599 309.63100848 C272.7664349 309.46600848 249.6458099 309.30100848 225.8245599 309.13100848 C225.8245599 245.44100848 225.8245599 181.75100848 225.8245599 116.13100848 C187.5445599 116.13100848 149.2645599 116.13100848 109.8245599 116.13100848 C109.8245599 179.82100848 109.8245599 243.51100848 109.8245599 309.13100848 C106.23680823 309.84855881 103.5989395 310.25633238 100.05399105 310.25799212 C99.12300594 310.26081194 98.19202083 310.26363177 97.23282406 310.26653704 C96.22379024 310.26451281 95.21475643 310.26248858 94.17514583 310.26040301 C93.10312923 310.26215533 92.03111263 310.26390765 90.92661068 310.26571307 C87.3873689 310.27011046 83.84817717 310.26720183 80.3089349 310.26382098 C77.85224942 310.26449442 75.395564 310.26546479 72.93887874 310.26672015 C67.79432069 310.26819409 62.64978 310.26605154 57.50522396 310.26137957 C50.89489783 310.25567047 44.28461219 310.25897067 37.67428753 310.26495203 C32.60444364 310.26855559 27.53460945 310.26742022 22.46476528 310.26482424 C20.02618186 310.26415502 17.58759757 310.26498321 15.14901516 310.26730379 C11.75145143 310.26982825 8.35395455 310.26599321 4.95639583 310.26040301 C3.43069973 310.26343935 3.43069973 310.26343935 1.87418148 310.26653704 C0.49462276 310.2623073 0.49462276 310.2623073 -0.91280583 310.25799212 C-1.71656777 310.25761509 -2.52032971 310.25723807 -3.34844807 310.25684962 C-5.1754401 310.13100848 -5.1754401 310.13100848 -6.1754401 309.13100848 C-6.27349169 307.48993162 -6.30099569 305.84460724 -6.30128124 304.20060381 C-6.30388899 303.12634363 -6.30649674 302.05208344 -6.30918351 300.94526991 C-6.30695279 299.7504528 -6.30472206 298.55563568 -6.30242375 297.32461199 C-6.30398374 296.06672901 -6.30554373 294.80884602 -6.30715099 293.51284537 C-6.31134867 290.00534164 -6.30925166 286.49786492 -6.30616477 282.99036106 C-6.30391267 279.21390788 -6.30738933 275.4374595 -6.31014469 271.66100726 C-6.31460342 264.25661011 -6.31362547 256.85222307 -6.31073205 249.44782552 C-6.30847842 243.43288672 -6.30816532 237.41795075 -6.30925587 231.40301165 C-6.3094091 230.5486246 -6.30956233 229.69423755 -6.30972021 228.81395999 C-6.31003992 227.07857125 -6.31036413 225.34318251 -6.3106928 223.60779378 C-6.3135479 207.31518429 -6.31026011 191.02258042 -6.30489244 174.72997186 C-6.30042437 160.73441614 -6.30120029 146.73886873 -6.3058112 132.74331316 C-6.31115644 116.51106633 -6.3132732 100.27882442 -6.31019893 84.04657683 C-6.30988037 82.31738632 -6.309566 80.58819581 -6.30925587 78.8590053 C-6.30910159 78.00809504 -6.30894732 77.15718478 -6.30878837 76.28048936 C-6.30792306 70.26916421 -6.30938638 64.25784217 -6.31173542 58.24651751 C-6.31453307 50.925908 -6.31379591 43.60530923 -6.30845468 36.28470096 C-6.30581718 32.54592216 -6.3048134 28.80716128 -6.30810383 25.06838259 C-6.3116089 21.02470761 -6.30743859 16.98107833 -6.30242375 12.93740496 C-6.30465447 11.74258785 -6.30688519 10.54777073 -6.30918351 9.31674704 C-6.30657576 8.24248685 -6.30396801 7.16822667 -6.30128124 6.06141314 C-6.30111889 5.12670404 -6.30095654 4.19199494 -6.30078927 3.22896132 C-6.05274052 -0.9225986 -3.56796838 0.01188737 0 0 Z M313.8245599 116.13100848 C313.8245599 141.87100848 313.8245599 167.61100848 313.8245599 194.13100848 C334.6145599 194.13100848 355.4045599 194.13100848 376.8245599 194.13100848 C376.8245599 168.39100848 376.8245599 142.65100848 376.8245599 116.13100848 C356.0345599 116.13100848 335.2445599 116.13100848 313.8245599 116.13100848 Z " fill="#F82F4D" transform="translate(20.175440102815628,94.8689915239811)"/>
<path d="M0 0 C1.3311483 0.00334608 1.3311483 0.00334608 2.68918848 0.00675976 C3.62447083 0.00519977 4.55975318 0.00363978 5.52337742 0.00203252 C8.68262664 -0.00198178 11.84182848 0.00121382 15.00107813 0.00434887 C17.25573235 0.00299502 19.51038635 0.00121518 21.76503992 -0.00096118 C27.90741943 -0.00553745 34.04978222 -0.00374517 40.19216204 -0.0005821 C46.60458279 0.00194051 53.01700205 -0.00039576 59.42942286 -0.00196826 C70.89115142 -0.00390713 82.35287068 -0.0007893 93.81459767 0.00429107 C104.21709364 0.00875912 114.61957845 0.00798319 125.02207422 0.00337231 C137.08804263 -0.00197335 149.15400259 -0.00397434 161.21997261 -0.00101542 C167.61228659 0.00054781 174.00459288 0.00073986 180.39690638 -0.00255191 C186.40500963 -0.00542943 192.4130917 -0.00345715 198.42119265 0.00234234 C200.63320172 0.00367059 202.84521255 0.00327475 205.05722094 0.00107968 C208.0630673 -0.00162932 211.06884463 0.00174621 214.07468653 0.00675976 C214.96211873 0.00452904 215.84955092 0.00229832 216.76387501 0 C222.76778769 0.01959359 222.76778769 0.01959359 223.8819375 1.13374341 C223.97758873 2.601233 224.00382059 4.07331224 224.00219202 5.54391491 C224.00425827 6.96919302 224.00425827 6.96919302 224.00636625 8.42326462 C224.00276814 9.47829147 223.99917004 10.53331831 223.99546289 11.62031567 C223.99558343 12.74051319 223.99570396 13.8607107 223.99582815 15.0148536 C223.99507861 18.65997212 223.98744852 22.30504022 223.97959375 25.95014966 C223.97812446 28.19294726 223.97710367 30.4357452 223.976542 32.67854321 C223.97128764 41.01778182 223.95732658 49.3570131 223.9444375 57.69624341 C223.9238125 76.32061841 223.9031875 94.94499341 223.8819375 114.13374341 C185.2719375 114.13374341 146.6619375 114.13374341 106.8819375 114.13374341 C106.8819375 177.82374341 106.8819375 241.51374341 106.8819375 307.13374341 C78.945375 307.16468091 78.945375 307.16468091 50.4444375 307.19624341 C41.60900171 307.20989941 41.60900171 307.20989941 32.59507227 307.2238313 C25.42673731 307.2283479 25.42673731 307.2283479 22.07564783 307.22918713 C19.72485652 307.23072717 17.37406602 307.23425331 15.02327967 307.23931897 C11.47167564 307.24659256 7.92012008 307.24765095 4.36850977 307.2472688 C3.31348292 307.2508669 2.25845608 307.25446501 1.17145872 307.25817215 C0.22127332 307.25679466 -0.72891209 307.25541716 -1.70789099 307.25399792 C-2.95645958 307.25538061 -2.95645958 307.25538061 -4.23025179 307.25679123 C-6.1180625 307.13374341 -6.1180625 307.13374341 -7.1180625 306.13374341 C-7.21607844 304.50830475 -7.24361801 302.87858204 -7.24390364 301.25019085 C-7.24651138 300.18638085 -7.24911913 299.12257085 -7.2518059 298.02652419 C-7.24957518 296.84337992 -7.24734446 295.66023565 -7.24504614 294.44123852 C-7.24660613 293.19560619 -7.24816612 291.94997386 -7.24977338 290.6665951 C-7.25397101 287.19329601 -7.25187407 283.72002419 -7.24878716 280.24672496 C-7.24653504 276.50708192 -7.25001174 272.76744373 -7.25276709 269.02780163 C-7.25722579 261.69559486 -7.25624787 254.36339829 -7.25335445 247.03119111 C-7.25110081 241.07489075 -7.25078772 235.11859326 -7.25187826 229.1622926 C-7.25203149 228.31623163 -7.25218473 227.47017067 -7.2523426 226.59847149 C-7.25266231 224.87999376 -7.25298653 223.16151602 -7.2533152 221.44303828 C-7.25617028 205.30923415 -7.25288252 189.17543568 -7.24751483 173.04163247 C-7.24304676 159.18252208 -7.24382269 145.32342006 -7.24843359 131.46430981 C-7.25377885 115.3902761 -7.25589559 99.31624737 -7.25282133 83.24221289 C-7.25250276 81.52987333 -7.25218839 79.81753377 -7.25187826 78.10519421 C-7.25172399 77.26257628 -7.25156971 76.41995835 -7.25141076 75.55180654 C-7.25054546 69.59909137 -7.25200876 63.64637935 -7.25435781 57.69366467 C-7.25715548 50.44442084 -7.25641827 43.19518784 -7.25107707 35.94594526 C-7.24843959 32.2436212 -7.24743577 28.54131523 -7.25072622 24.83899128 C-7.25423134 20.83472769 -7.25006095 16.83051025 -7.24504614 12.82624829 C-7.24727686 11.64310402 -7.24950758 10.45995975 -7.2518059 9.24096262 C-7.24789428 7.64524762 -7.24789428 7.64524762 -7.24390364 6.01729596 C-7.24374128 5.09170014 -7.24357893 4.16610433 -7.24341166 3.21246016 C-6.97485673 -1.24109666 -3.70962193 0.01210624 0 0 Z " fill="#5F71F2" transform="translate(22.118062496185303,95.8662565946579)"/>
<path d="M0 0 C1.1247165 0.00394052 1.1247165 0.00394052 2.27215454 0.00796065 C3.06515564 0.0068068 3.85815674 0.00565296 4.67518818 0.00446415 C7.36676858 0.00179013 10.05829069 0.00632605 12.74986812 0.01075396 C14.68526269 0.01031842 16.62065721 0.00944383 18.5560514 0.00816479 C23.90113762 0.00591648 29.24620401 0.00994568 34.5912877 0.01494285 C40.34524344 0.01924238 46.09919797 0.01780129 51.85315487 0.01704058 C61.83116522 0.01651503 71.80916906 0.01966508 81.78717777 0.02527842 C96.21388529 0.0333892 110.64058965 0.0360082 125.06729921 0.03726641 C148.47100704 0.0394576 171.87471138 0.04611092 195.27841732 0.05556902 C218.01930256 0.06474867 240.76018686 0.07181773 263.50107357 0.07607684 C264.93030682 0.07634748 266.35954008 0.07661818 267.78877333 0.07688895 C278.85376377 0.07897442 289.91875424 0.08092521 300.98374471 0.08284351 C355.26401963 0.09228525 409.54428585 0.11240164 463.8245599 0.13100848 C463.8245599 102.43100848 463.8245599 204.73100848 463.8245599 310.13100848 C407.83929305 310.13100848 351.86872567 310.04315749 295.8870599 309.63100848 C272.7664349 309.46600848 249.6458099 309.30100848 225.8245599 309.13100848 C225.8245599 245.44100848 225.8245599 181.75100848 225.8245599 116.13100848 C187.5445599 116.13100848 149.2645599 116.13100848 109.8245599 116.13100848 C109.8245599 179.82100848 109.8245599 243.51100848 109.8245599 309.13100848 C106.23680823 309.84855881 103.5989395 310.25633238 100.05399105 310.25799212 C99.12300594 310.26081194 98.19202083 310.26363177 97.23282406 310.26653704 C96.22379024 310.26451281 95.21475643 310.26248858 94.17514583 310.26040301 C93.10312923 310.26215533 92.03111263 310.26390765 90.92661068 310.26571307 C87.3873689 310.27011046 83.84817717 310.26720183 80.3089349 310.26382098 C77.85224942 310.26449442 75.395564 310.26546479 72.93887874 310.26672015 C67.79432069 310.26819409 62.64978 310.26605154 57.50522396 310.26137957 C50.89489783 310.25567047 44.28461219 310.25897067 37.67428753 310.26495203 C32.60444364 310.26855559 27.53460945 310.26742022 22.46476528 310.26482424 C20.02618186 310.26415502 17.58759757 310.26498321 15.14901516 310.26730379 C11.75145143 310.26982825 8.35395455 310.26599321 4.95639583 310.26040301 C3.43069973 310.26343935 3.43069973 310.26343935 1.87418148 310.26653704 C0.49462276 310.2623073 0.49462276 310.2623073 -0.91280583 310.25799212 C-1.71656777 310.25761509 -2.52032971 310.25723807 -3.34844807 310.25684962 C-5.1754401 310.13100848 -5.1754401 310.13100848 -6.1754401 309.13100848 C-6.27349169 307.48993162 -6.30099569 305.84460724 -6.30128124 304.20060381 C-6.30388899 303.12634363 -6.30649674 302.05208344 -6.30918351 300.94526991 C-6.30695279 299.7504528 -6.30472206 298.55563568 -6.30242375 297.32461199 C-6.30398374 296.06672901 -6.30554373 294.80884602 -6.30715099 293.51284537 C-6.31134867 290.00534164 -6.30925166 286.49786492 -6.30616477 282.99036106 C-6.30391267 279.21390788 -6.30738933 275.4374595 -6.31014469 271.66100726 C-6.31460342 264.25661011 -6.31362547 256.85222307 -6.31073205 249.44782552 C-6.30847842 243.43288672 -6.30816532 237.41795075 -6.30925587 231.40301165 C-6.3094091 230.5486246 -6.30956233 229.69423755 -6.30972021 228.81395999 C-6.31003992 227.07857125 -6.31036413 225.34318251 -6.3106928 223.60779378 C-6.3135479 207.31518429 -6.31026011 191.02258042 -6.30489244 174.72997186 C-6.30042437 160.73441614 -6.30120029 146.73886873 -6.3058112 132.74331316 C-6.31115644 116.51106633 -6.3132732 100.27882442 -6.31019893 84.04657683 C-6.30988037 82.31738632 -6.309566 80.58819581 -6.30925587 78.8590053 C-6.30910159 78.00809504 -6.30894732 77.15718478 -6.30878837 76.28048936 C-6.30792306 70.26916421 -6.30938638 64.25784217 -6.31173542 58.24651751 C-6.31453307 50.925908 -6.31379591 43.60530923 -6.30845468 36.28470096 C-6.30581718 32.54592216 -6.3048134 28.80716128 -6.30810383 25.06838259 C-6.3116089 21.02470761 -6.30743859 16.98107833 -6.30242375 12.93740496 C-6.30465447 11.74258785 -6.30688519 10.54777073 -6.30918351 9.31674704 C-6.30657576 8.24248685 -6.30396801 7.16822667 -6.30128124 6.06141314 C-6.30111889 5.12670404 -6.30095654 4.19199494 -6.30078927 3.22896132 C-6.05274052 -0.9225986 -3.56796838 0.01188737 0 0 Z M-5.1754401 2.13100848 C-5.27345604 3.75644713 -5.30099562 5.38616984 -5.30128124 7.01456103 C-5.30388899 8.07837103 -5.30649674 9.14218103 -5.30918351 10.2382277 C-5.30695279 11.42137196 -5.30472206 12.60451623 -5.30242375 13.82351336 C-5.30398374 15.06914569 -5.30554373 16.31477802 -5.30715099 17.59815678 C-5.31134862 21.07145587 -5.30925168 24.54472769 -5.30616477 28.01802692 C-5.30391264 31.75766997 -5.30738934 35.49730815 -5.31014469 39.23695025 C-5.3146034 46.56915702 -5.31362548 53.90135359 -5.31073205 61.23356077 C-5.30847841 67.18986113 -5.30816532 73.14615862 -5.30925587 79.10245928 C-5.3094091 79.94852025 -5.30956233 80.79458121 -5.30972021 81.66628039 C-5.31003992 83.38475813 -5.31036413 85.10323586 -5.3106928 86.8217136 C-5.31354789 102.95551773 -5.31026012 119.0893162 -5.30489244 135.22311941 C-5.30042437 149.0822298 -5.3012003 162.94133183 -5.3058112 176.80044207 C-5.31115645 192.87447578 -5.3132732 208.94850451 -5.31019893 225.02253899 C-5.30988037 226.73487855 -5.309566 228.44721811 -5.30925587 230.15955767 C-5.30910159 231.0021756 -5.30894732 231.84479353 -5.30878837 232.71294534 C-5.30792306 238.66566051 -5.30938637 244.61837253 -5.31173542 250.57108721 C-5.31453308 257.82033104 -5.31379588 265.06956404 -5.30845468 272.31880662 C-5.3058172 276.02113068 -5.30481337 279.72343665 -5.30810383 283.4257606 C-5.31160895 287.43002419 -5.30743856 291.43424163 -5.30242375 295.43850359 C-5.30465447 296.62164786 -5.30688519 297.80479213 -5.30918351 299.02378926 C-5.30657576 300.08759926 -5.30396801 301.15140926 -5.30128124 302.24745592 C-5.30111889 303.17305174 -5.30095654 304.09864755 -5.30078927 305.05229172 C-5.40667685 307.12085925 -5.40667685 307.12085925 -4.1754401 308.13100848 C-2.70795051 308.2266597 -1.23587127 308.25289157 0.23473141 308.25126299 C1.18491681 308.25264049 2.13510221 308.25401799 3.11408111 308.25543723 C4.16910796 308.25183912 5.22413481 308.24824101 6.31113216 308.24453387 C7.43132968 308.2446544 8.55152719 308.24477494 9.70567009 308.24489912 C13.35078861 308.24414959 16.99585671 308.23651949 20.64096615 308.22866473 C22.88376375 308.22719543 25.12656169 308.22617465 27.3693597 308.22561297 C35.70859831 308.22035861 44.04782959 308.20639755 52.3870599 308.19350848 C80.3236224 308.16257098 80.3236224 308.16257098 108.8245599 308.13100848 C108.8245599 244.44100848 108.8245599 180.75100848 108.8245599 115.13100848 C147.4345599 115.13100848 186.0445599 115.13100848 225.8245599 115.13100848 C225.8451849 96.50663348 225.8658099 77.88225848 225.8870599 58.69350848 C225.8961639 52.80321795 225.9052679 46.91292742 225.91464779 40.84414324 C225.91799131 35.58443132 225.91799131 35.58443132 225.92000362 30.3247188 C225.92154366 27.97392749 225.9250698 25.623137 225.93013546 23.27235064 C225.93740905 19.72074662 225.93846745 16.16919105 225.93808529 12.61758074 C225.9416834 11.5625539 225.9452815 10.50752705 225.94898865 9.42052969 C225.9469224 7.99525159 225.9469224 7.99525159 225.94481441 6.54117998 C225.94573621 5.70880092 225.946658 4.87642186 225.94760773 4.01881918 C226.03218204 2.11875804 226.03218204 2.11875804 224.8245599 1.13100848 C221.88117931 1.03080961 218.96118619 0.99662486 216.01730892 1.00402483 C215.08202657 1.00246484 214.14674422 1.00090485 213.18311998 0.99929759 C210.02387076 0.99528329 206.86466892 0.99847889 203.70541927 1.00161394 C201.45076505 1.00026009 199.19611106 0.99848025 196.94145748 0.99630389 C190.79907797 0.99172762 184.65671518 0.9935199 178.51433536 0.99668297 C172.10191462 0.99920558 165.68949535 0.99686931 159.27707455 0.99529681 C147.81534599 0.99335794 136.35362672 0.99647577 124.89189973 1.00155614 C114.48940376 1.00602419 104.08691895 1.00524826 93.68442318 1.00063738 C81.61845478 0.99529172 69.55249481 0.99329073 57.48652479 0.99624965 C51.09421081 0.99781288 44.70190452 0.99800493 38.30959103 0.99471316 C32.30148778 0.99183564 26.2934057 0.99380792 20.28530475 0.99960741 C18.07329568 1.00093566 15.86128485 1.00053982 13.64927647 0.99834475 C10.6434301 0.99563575 7.63765277 0.99901128 4.63181087 1.00402483 C3.30066258 1.00067875 3.30066258 1.00067875 1.94262239 0.99726507 C-1.92763075 0.62738894 -1.92763075 0.62738894 -5.1754401 2.13100848 Z M227.8245599 2.13100848 C227.21893164 71.17262946 226.63568724 140.19199149 226.63944408 209.23311266 C226.63905223 217.59369335 226.62698584 225.95423805 226.6135135 234.31480631 C226.60050235 242.69753623 226.59506908 251.08024828 226.59571257 259.46298823 C226.59596532 264.38093337 226.59322516 269.29882828 226.58253452 274.21676287 C226.57294125 278.73586235 226.57271249 283.25486146 226.58005115 287.77396426 C226.58110108 289.42448098 226.57871009 291.07500389 226.5726907 292.72550997 C226.56504015 294.96528957 226.56956481 297.20471381 226.57732174 299.44448504 C226.57677697 300.69570147 226.5762322 301.9469179 226.57567093 303.23604998 C226.52250643 306.25824774 226.52250643 306.25824774 228.8245599 308.13100848 C231.88087557 308.3269523 234.84651744 308.3957183 237.90392086 308.37824664 C238.85639184 308.38066105 239.80886283 308.38307547 240.79019657 308.38556305 C244.00167062 308.39122685 247.21294811 308.38251675 250.42441341 308.3739284 C252.71862376 308.37500061 255.01283385 308.37693838 257.30704281 308.37968096 C263.55268668 308.38454194 269.79825946 308.37685824 276.04389474 308.36672792 C282.56574797 308.35796884 289.08759883 308.35970444 295.60945675 308.36008868 C306.56259921 308.35915113 317.5157135 308.35050827 328.46884701 308.33681902 C339.74945106 308.32272771 351.0300309 308.31564836 362.31064388 308.31631121 C363.35296256 308.31637114 363.35296256 308.31637114 364.41633818 308.31643229 C365.45681841 308.31649282 365.45681841 308.31649282 366.51831844 308.31655458 C378.69526777 308.31720875 390.87220534 308.31206763 403.04915211 308.30376276 C408.24253897 308.30022229 413.43592233 308.29839843 418.62931034 308.29786906 C424.73838581 308.29686814 430.84743563 308.29079219 436.95650265 308.28070292 C439.20560014 308.2777699 441.4547006 308.27655416 443.70379993 308.27713045 C446.75995521 308.27761741 449.81603743 308.27200255 452.87218258 308.26472124 C453.77449645 308.26626985 454.67681032 308.26781845 455.60646704 308.26941398 C459.52974053 308.64455754 459.52974053 308.64455754 462.8245599 307.13100848 C462.92167983 305.50460733 462.94827574 303.87396078 462.94760773 302.24466261 C462.94959877 301.18023591 462.95158982 300.11580921 462.95364121 299.01912716 C462.94927194 297.24338758 462.94927194 297.24338758 462.94481441 295.43177447 C462.94566884 294.18543657 462.94652326 292.93909868 462.94740358 291.65499297 C462.94965087 288.17976083 462.94562408 284.70455923 462.94062552 281.22933099 C462.93632455 277.48766397 462.93776719 273.7459988 462.93852779 270.00433001 C462.93905325 263.51638981 462.93590416 257.02845963 462.93028995 250.54052195 C462.92217793 241.15994496 462.91956004 231.77937284 462.91830196 222.39879272 C462.91611097 207.18102921 462.90944962 191.96327104 462.89999935 176.74551043 C462.89082644 161.95905236 462.88375648 147.17259576 462.87949154 132.38613543 C462.87922354 131.466065 462.87895554 130.54599458 462.87867942 129.59804323 C462.87660012 122.40295461 462.87464315 115.20786596 462.87272486 108.0127773 C462.86328374 72.71884945 462.8431672 37.42493498 462.8245599 2.13100848 C385.2745599 2.13100848 307.7245599 2.13100848 227.8245599 2.13100848 Z " fill="#8B4443" transform="translate(20.175440102815628,94.8689915239811)"/>
<path d="M0 0 C78.21 0 156.42 0 237 0 C237 101.97 237 203.94 237 309 C182.67044919 309 128.35445814 308.93985372 74.02832031 308.53643799 C66.34604495 308.47974635 58.663744 308.42667749 50.98144543 308.37324238 C33.65426857 308.25264659 16.32712423 308.12793282 -1 308 C-1.024042 284.82206071 -1.04131014 261.64412362 -1.05181217 238.46617413 C-1.05628901 228.85413281 -1.06113043 219.2420952 -1.07165909 209.63005829 C-1.14722906 139.7440729 -0.60772272 69.88811261 0 0 Z M1 1 C0.39437175 70.04162098 -0.18887266 139.06098302 -0.18511581 208.10210419 C-0.18550767 216.46268487 -0.19757406 224.82322958 -0.2110464 233.18379784 C-0.22405755 241.56652775 -0.22949082 249.94923981 -0.22884732 258.33197975 C-0.22859458 263.24992489 -0.23133474 268.1678198 -0.24202538 273.08575439 C-0.25161865 277.60485388 -0.2518474 282.12385299 -0.24450874 286.64295578 C-0.24345881 288.29347251 -0.24584981 289.94399541 -0.2518692 291.5945015 C-0.25951975 293.83428109 -0.25499509 296.07370534 -0.24723816 298.31347656 C-0.24778293 299.56469299 -0.24832769 300.81590942 -0.24888897 302.1050415 C-0.30205347 305.12723926 -0.30205347 305.12723926 2 307 C5.05631568 307.19594382 8.02195754 307.26470982 11.07936096 307.24723816 C12.03183195 307.24965257 12.98430293 307.25206699 13.96563667 307.25455457 C17.17711072 307.26021838 20.38838821 307.25150827 23.59985352 307.24291992 C25.89406386 307.24399213 28.18827395 307.2459299 30.48248291 307.24867249 C36.72812678 307.25353346 42.97369957 307.24584976 49.21933484 307.23571944 C55.74118807 307.22696036 62.26303894 307.22869596 68.78489685 307.2290802 C79.73803931 307.22814265 90.6911536 307.21949979 101.64428711 307.20581055 C112.92489117 307.19171924 124.20547101 307.18463989 135.48608398 307.18530273 C136.52840266 307.18536267 136.52840266 307.18536267 137.59177829 307.18542381 C138.63225852 307.18548435 138.63225852 307.18548435 139.69375855 307.1855461 C151.87070787 307.18620028 164.04764544 307.18105915 176.22459221 307.17275429 C181.41797907 307.16921382 186.61136243 307.16738995 191.80475044 307.16686058 C197.91382592 307.16585966 204.02287573 307.15978371 210.13194275 307.14969444 C212.38104025 307.14676142 214.6301407 307.14554568 216.87924004 307.14612198 C219.93539531 307.14660893 222.99147753 307.14099407 226.04762268 307.13371277 C226.94993655 307.13526137 227.85225042 307.13680997 228.78190714 307.1384055 C232.70518064 307.51354907 232.70518064 307.51354907 236 306 C236.09711993 304.37359886 236.12371585 302.7429523 236.12304783 301.11365414 C236.12503888 300.04922744 236.12702993 298.98480074 236.12908131 297.88811868 C236.12471205 296.1123791 236.12471205 296.1123791 236.12025452 294.30076599 C236.12110894 293.0544281 236.12196337 291.8080902 236.12284368 290.52398449 C236.12509098 287.04875236 236.12106418 283.57355075 236.11606562 280.09832251 C236.11176465 276.35665549 236.11320729 272.61499033 236.1139679 268.87332153 C236.11449336 262.38538133 236.11134426 255.89745115 236.10573006 249.40951347 C236.09761803 240.02893648 236.09500014 230.64836436 236.09374207 221.26778425 C236.09155108 206.05002073 236.08488972 190.83226256 236.07543945 175.61450195 C236.06626655 160.82804389 236.05919658 146.04158728 236.05493164 131.25512695 C236.05466364 130.33505653 236.05439565 129.4149861 236.05411953 128.46703476 C236.05204022 121.27194614 236.05008326 114.07685749 236.04816496 106.88176882 C236.03872385 71.58784097 236.01860731 36.2939265 236 1 C158.45 1 80.9 1 1 1 Z " fill="#B9B2B0" transform="translate(247,96)"/>
<path d="M0 0 C0.33 0 0.66 0 1 0 C1 64.02 1 128.04 1 194 C-2.58775166 194.71755033 -5.2256204 195.12532391 -8.77056885 195.12698364 C-9.70155396 195.12980347 -10.63253906 195.13262329 -11.59173584 195.13552856 C-12.60076965 195.13350433 -13.60980347 195.1314801 -14.64941406 195.12939453 C-15.72143066 195.13114685 -16.79344727 195.13289917 -17.89794922 195.13470459 C-21.43719099 195.13910199 -24.97638273 195.13619335 -28.515625 195.1328125 C-30.97231048 195.13348595 -33.4289959 195.13445631 -35.88568115 195.13571167 C-41.03023921 195.13718561 -46.1747799 195.13504306 -51.31933594 195.13037109 C-57.92966207 195.12466199 -64.53994771 195.1279622 -71.15027237 195.13394356 C-76.22011626 195.13754712 -81.28995045 195.13641174 -86.35979462 195.13381577 C-88.79837804 195.13314655 -91.23696233 195.13397474 -93.67554474 195.13629532 C-97.07310847 195.13881977 -100.47060534 195.13498473 -103.86816406 195.12939453 C-105.39386017 195.13243088 -105.39386017 195.13243088 -106.95037842 195.13552856 C-107.87008423 195.13270874 -108.78979004 195.12988892 -109.73736572 195.12698364 C-110.54112766 195.12660662 -111.3448896 195.12622959 -112.17300797 195.12584114 C-114 195 -114 195 -115 194 C-115.09772312 191.5084728 -115.12995818 189.04469492 -115.12025452 186.55271912 C-115.12110894 185.76373909 -115.12196337 184.97475906 -115.12284368 184.16187054 C-115.12450089 181.49778373 -115.11897321 178.83375882 -115.11352539 176.16967773 C-115.11324354 174.26807659 -115.1134012 172.36647534 -115.1139679 170.46487427 C-115.11425597 165.28533716 -115.10835763 160.10582299 -115.10139394 154.92629123 C-115.09516206 149.51971473 -115.09455673 144.11313776 -115.09336853 138.70655823 C-115.09025472 128.46074709 -115.08204067 118.21494657 -115.07201904 107.96914011 C-115.06085943 96.30791337 -115.05534784 84.64668614 -115.05032361 72.98545539 C-115.0398581 48.9902977 -115.0222577 24.99514944 -115 1 C-114.67 1 -114.34 1 -114 1 C-113.00303025 11.29386285 -112.86294533 21.48788542 -112.88647461 31.81567383 C-112.88675729 33.57126361 -112.88659717 35.32685352 -112.8860321 37.08244324 C-112.88574729 41.80880596 -112.89159268 46.53514287 -112.89860606 51.26149964 C-112.90489245 56.21556607 -112.90544756 61.1696332 -112.90663147 66.123703 C-112.90972928 75.48725747 -112.91792163 84.85080015 -112.92798096 94.21434945 C-112.9412898 106.8798127 -112.94665453 119.54527923 -112.95248318 132.21074772 C-112.96186268 152.1405073 -112.98179192 172.070242 -113 192 C-57.065 192.495 -57.065 192.495 0 193 C0 129.31 0 65.62 0 0 Z " fill="#A23C2E" transform="translate(129,210)"/>
<path d="M0 0 C1.91703735 -0.00472824 1.91703735 -0.00472824 3.87280273 -0.009552 C5.27848342 -0.00776222 6.6841638 -0.00571127 8.08984375 -0.00341797 C9.52091488 -0.00409105 10.9519859 -0.00506111 12.38305664 -0.00631714 C15.38591599 -0.00779391 18.38874565 -0.00564023 21.39160156 -0.00097656 C25.24886946 0.00472073 29.10606779 0.00144161 32.96333313 -0.00454903 C35.91947966 -0.00815521 38.87560958 -0.00701579 41.83175659 -0.00442123 C43.25438444 -0.00375212 44.67701378 -0.00457984 46.09963989 -0.00690079 C48.08465549 -0.0094282 50.06967634 -0.00489589 52.0546875 0 C53.75226196 0.00119339 53.75226196 0.00119339 55.48413086 0.00241089 C58.02734375 0.12939453 58.02734375 0.12939453 59.02734375 1.12939453 C59.15760423 3.5874978 59.22396552 6.01905129 59.24853516 8.47900391 C59.26579399 9.63261162 59.26579399 9.63261162 59.28340149 10.80952454 C59.32022925 13.36402324 59.3497869 15.91854714 59.37890625 18.47314453 C59.40200688 20.24052297 59.42539705 22.00789764 59.44906616 23.77526855 C59.49758819 27.48426147 59.54251155 31.19327651 59.58496094 34.90234375 C59.63979838 39.66770693 59.70361778 44.43289975 59.77013588 49.19811249 C59.82009965 52.84905845 59.86527175 56.5000515 59.90897751 60.15107727 C59.93061143 61.90865484 59.95376874 63.66621432 59.97844315 65.42375183 C60.01215778 67.87573479 60.03943051 70.32770502 60.06494141 72.77978516 C60.07631638 73.51332718 60.08769135 74.2468692 60.09941101 75.00263977 C60.11379586 76.71166632 60.07620223 78.42100596 60.02734375 80.12939453 C59.02734375 81.12939453 59.02734375 81.12939453 56.401474 81.24964905 C55.2312117 81.24742844 54.0609494 81.24520782 52.85522461 81.24291992 C51.88940208 81.24313896 51.88940208 81.24313896 50.90406799 81.24336243 C48.76674072 81.24266338 46.62949962 81.23487144 44.4921875 81.22705078 C43.0138809 81.22518657 41.53557368 81.22376268 40.05726624 81.22276306 C36.15935573 81.21893812 32.26148226 81.20910805 28.36358643 81.19805908 C24.38888042 81.18784445 20.41416846 81.18326533 16.43945312 81.17822266 C8.63539975 81.16748575 0.83137693 81.15040962 -6.97265625 81.12939453 C-6.99577984 70.71596528 -7.01357142 60.30254209 -7.02446842 49.88909245 C-7.02969722 45.05422626 -7.03679479 40.21937759 -7.0480957 35.38452148 C-7.05892472 30.72262334 -7.06493311 26.06074207 -7.06753349 21.39883232 C-7.06938772 19.61615165 -7.07300828 17.83347194 -7.07838631 16.05079842 C-7.08559694 13.56273493 -7.08664718 11.0747421 -7.08618164 8.58666992 C-7.08977692 7.84220612 -7.09337219 7.09774231 -7.09707642 6.33071899 C-7.08378413 -0.19141134 -6.3607758 0.00447161 0 0 Z M-4.97265625 2.12939453 C-4.97265625 27.86939453 -4.97265625 53.60939453 -4.97265625 80.12939453 C15.81734375 80.12939453 36.60734375 80.12939453 58.02734375 80.12939453 C58.02734375 54.38939453 58.02734375 28.64939453 58.02734375 2.12939453 C37.23734375 2.12939453 16.44734375 2.12939453 -4.97265625 2.12939453 Z " fill="#C6C3C2" transform="translate(338.97265625,208.87060546875)"/>
<path d="M0 0 C0.33 0 0.66 0 1 0 C1.33 3.96 1.66 7.92 2 12 C4.97 12.33 7.94 12.66 11 13 C11 13.66 11 14.32 11 15 C9.35425434 15.02688151 7.70838587 15.04634123 6.0625 15.0625 C5.14597656 15.07410156 4.22945312 15.08570313 3.28515625 15.09765625 C1 15 1 15 0 14 C-0.07271741 11.64686445 -0.08370868 9.29166332 -0.0625 6.9375 C-0.05347656 5.64714844 -0.04445313 4.35679687 -0.03515625 3.02734375 C-0.02355469 2.02832031 -0.01195312 1.02929688 0 0 Z " fill="#942A26" transform="translate(14,390)"/>
</svg>
