<?xml version="1.0" standalone="no"?>
<!DOCTYPE svg PUBLIC "-//W3C//DTD SVG 20010904//EN"
 "http://www.w3.org/TR/2001/REC-SVG-20010904/DTD/svg10.dtd">
<svg version="1.0" xmlns="http://www.w3.org/2000/svg"
 width="492.000000pt" height="507.000000pt" viewBox="0 0 492.000000 507.000000"
 preserveAspectRatio="xMidYMid meet">

<g transform="translate(0.000000,507.000000) scale(0.100000,-0.100000)"
fill="#000000" stroke="none">
<path d="M2265 4790 l-1290 -5 -70 -22 c-157 -50 -312 -146 -410 -254 -112
-125 -181 -261 -214 -426 -21 -100 -21 -124 -21 -1570 0 -1398 1 -1472 19
-1558 24 -114 49 -181 105 -275 117 -200 309 -345 541 -412 l80 -23 1420 0
1420 0 82 22 c280 75 495 260 606 523 71 169 67 77 67 1726 0 1654 4 1564 -69
1734 -112 261 -339 454 -611 519 -114 27 -139 27 -1655 21z m1668 -163 c100
-35 147 -59 222 -112 163 -117 277 -305 305 -505 8 -63 11 -458 8 -1545 -4
-1646 4 -1496 -84 -1673 -32 -62 -68 -115 -112 -163 -111 -120 -201 -177 -359
-226 l-88 -28 -1385 0 c-1384 0 -1385 0 -1465 21 -330 89 -543 339 -575 677
-16 162 -8 2913 8 2982 71 300 296 526 588 589 60 13 258 14 1464 13 l1395 -2
78 -28z"/>
<path d="M3355 4529 c-374 -29 -693 -317 -770 -694 -14 -72 -15 -212 -12
-1325 3 -1236 3 -1246 24 -1318 12 -40 37 -105 56 -145 35 -74 136 -217 178
-252 133 -112 257 -180 394 -216 102 -27 296 -30 400 -6 362 83 634 381 675
739 8 63 10 485 8 1298 -4 1190 -4 1206 -25 1277 -72 248 -239 450 -463 559
-144 70 -291 96 -465 83z m568 -1122 c25 -32 29 -115 9 -164 -25 -58 -101 -64
-137 -9 -25 38 -22 138 5 176 19 27 27 31 63 28 30 -2 45 -10 60 -31z m-89
-252 c8 -39 30 -55 75 -55 29 0 31 -2 31 -40 l0 -40 -80 0 -80 0 0 40 c0 31 4
40 17 40 15 0 15 1 0 18 -10 10 -17 31 -17 45 0 22 5 27 24 27 19 0 25 -7 30
-35z m36 -241 c0 -56 3 -75 13 -72 16 6 22 47 8 61 -6 6 -11 29 -11 50 0 39 0
39 23 25 49 -33 59 -148 16 -202 -28 -36 -81 -36 -114 0 -21 23 -25 37 -25 94
0 57 4 71 25 94 13 14 33 26 45 26 18 0 20 -6 20 -76z m-20 -222 c0 -21 -5
-43 -11 -49 -18 -18 -7 -58 18 -61 32 -5 49 32 29 63 -18 27 -22 85 -5 85 50
0 78 -74 59 -158 -9 -41 -17 -55 -40 -67 -41 -21 -58 -19 -91 14 -26 26 -29
36 -29 94 0 50 5 70 21 91 30 38 49 34 49 -12z m94 -233 c38 -18 60 -84 51
-154 -6 -49 -9 -55 -30 -55 -22 0 -23 3 -22 59 2 57 -13 95 -30 78 -4 -4 -1
-13 5 -19 20 -20 15 -89 -10 -115 -26 -28 -82 -31 -110 -6 -21 19 -25 101 -5
122 10 11 10 14 0 18 -8 3 -13 22 -13 44 l0 39 70 0 c38 0 80 -5 94 -11z m-4
-299 l0 -40 -49 0 c-52 0 -67 -14 -56 -51 5 -15 16 -19 56 -19 l49 0 0 -45 0
-45 -80 0 -80 0 0 45 c0 25 5 45 10 45 7 0 7 6 0 19 -5 11 -10 38 -10 60 0 53
25 71 102 71 l58 0 0 -40z m-176 -255 c8 -32 -10 -67 -32 -63 -17 3 -28 47
-18 74 9 24 43 16 50 -11z m176 -20 l0 -45 -80 0 -80 0 0 45 0 45 80 0 80 0 0
-45z m-105 -92 c10 -42 24 -53 66 -53 39 0 39 0 39 -40 l0 -40 -80 0 -80 0 0
39 c0 22 5 41 13 44 10 4 10 7 0 18 -7 7 -13 23 -13 36 0 36 46 32 55 -4z"/>
<path d="M3842 3351 c-22 -14 -11 -65 15 -69 29 -4 48 30 33 58 -11 21 -27 25
-48 11z"/>
<path d="M3826 2884 c-3 -9 -2 -23 4 -32 7 -14 9 -10 10 16 0 35 -5 41 -14 16z"/>
<path d="M3843 2383 c-7 -2 -13 -17 -13 -33 0 -33 27 -48 49 -26 12 12 12 20
3 41 -12 25 -17 28 -39 18z"/>
</g>
</svg>
